<?xml version="1.0" encoding="UTF-8" standalone="no"?>
<!DOCTYPE svg PUBLIC "-//W3C//DTD SVG 1.0//EN" "http://www.w3.org/TR/2001/PR-SVG-20010719/DTD/svg10.dtd">
<svg width="66cm" height="36cm" viewBox="20 79 1304 704" xmlns="http://www.w3.org/2000/svg" xmlns:xlink="http://www.w3.org/1999/xlink">
  <g>
    <polygon style="fill: #ffffff" points="260,140.855 273.333,138.189 266.667,127.522 277.333,134.189 280,120.855 282.667,134.189 293.333,127.522 286.667,138.189 300,140.855 286.667,143.522 293.333,154.189 282.667,147.522 280,160.855 277.333,147.522 266.667,154.189 273.333,143.522 "/>
    <polygon style="fill: none; fill-opacity:0; stroke-width: 2; stroke: #000000" points="260,140.855 273.333,138.189 266.667,127.522 277.333,134.189 280,120.855 282.667,134.189 293.333,127.522 286.667,138.189 300,140.855 286.667,143.522 293.333,154.189 282.667,147.522 280,160.855 277.333,147.522 266.667,154.189 273.333,143.522 "/>
    <polygon style="fill: none; fill-opacity:0; stroke-width: 2; stroke: #000000" points="260,140.855 273.333,138.189 266.667,127.522 277.333,134.189 280,120.855 282.667,134.189 293.333,127.522 286.667,138.189 300,140.855 286.667,143.522 293.333,154.189 282.667,147.522 280,160.855 277.333,147.522 266.667,154.189 273.333,143.522 "/>
  </g>
  <g>
    <line style="fill: none; fill-opacity:0; stroke-width: 2; stroke: #000000" x1="199.984" y1="520.856" x2="199.806" y2="750.058"/>
    <line style="fill: none; fill-opacity:0; stroke-width: 2; stroke: #000000" x1="200" y1="500.856" x2="199.997" y2="504.856"/>
    <line style="fill: none; fill-opacity:0; stroke-width: 2; stroke: #000000" x1="199.995" y1="507.523" x2="199.992" y2="511.523"/>
    <line style="fill: none; fill-opacity:0; stroke-width: 2; stroke: #000000" x1="199.99" y1="514.189" x2="199.986" y2="518.189"/>
    <polygon style="fill: #000000" points="199.8,757.558 194.808,747.554 199.806,750.058 204.808,747.562 "/>
    <polygon style="fill: none; fill-opacity:0; stroke-width: 2; stroke: #000000" points="199.8,757.558 194.808,747.554 199.806,750.058 204.808,747.562 "/>
  </g>
  <g>
    <line style="fill: none; fill-opacity:0; stroke-width: 2; stroke: #000000" x1="219.984" y1="520.856" x2="219.806" y2="750.058"/>
    <line style="fill: none; fill-opacity:0; stroke-width: 2; stroke: #000000" x1="220" y1="500.856" x2="219.997" y2="504.856"/>
    <line style="fill: none; fill-opacity:0; stroke-width: 2; stroke: #000000" x1="219.995" y1="507.523" x2="219.992" y2="511.523"/>
    <line style="fill: none; fill-opacity:0; stroke-width: 2; stroke: #000000" x1="219.99" y1="514.189" x2="219.986" y2="518.189"/>
    <polygon style="fill: #000000" points="219.8,757.558 214.808,747.554 219.806,750.058 224.808,747.562 "/>
    <polygon style="fill: none; fill-opacity:0; stroke-width: 2; stroke: #000000" points="219.8,757.558 214.808,747.554 219.806,750.058 224.808,747.562 "/>
  </g>
  <g>
    <ellipse style="fill: #ffffff" cx="360.018" cy="139.602" rx="20.0175" ry="19.6018"/>
    <ellipse style="fill: none; fill-opacity:0; stroke-width: 2; stroke: #000000" cx="360.018" cy="139.602" rx="20.0175" ry="19.6018"/>
    <text font-size="12.8" style="fill: #000000;text-anchor:middle;font-family:sans-serif;font-style:normal;font-weight:normal" x="360.018" y="143.502">
      <tspan x="360.018" y="143.502">b</tspan>
    </text>
  </g>
  <g>
    <ellipse style="fill: #ffffff" cx="520.203" cy="139.808" rx="20.2026" ry="19.8081"/>
    <ellipse style="fill: none; fill-opacity:0; stroke-width: 2; stroke: #000000" cx="520.203" cy="139.808" rx="20.2026" ry="19.8081"/>
    <text font-size="12.8" style="fill: #000000;text-anchor:middle;font-family:sans-serif;font-style:normal;font-weight:normal" x="520.203" y="143.708">
      <tspan x="520.203" y="143.708">B</tspan>
    </text>
  </g>
  <g>
    <rect style="fill: #ffffff" x="420" y="120" width="40" height="38"/>
    <rect style="fill: none; fill-opacity:0; stroke-width: 2; stroke: #000000" x="420" y="120" width="40" height="38"/>
    <text font-size="12.8" style="fill: #000000;text-anchor:middle;font-family:sans-serif;font-style:normal;font-weight:normal" x="440" y="142.9">
      <tspan x="440" y="142.9">pk</tspan>
    </text>
  </g>
  <g>
    <line style="fill: none; fill-opacity:0; stroke-width: 2; stroke: #000000" x1="380.036" y1="139.602" x2="410.265" y2="139.147"/>
    <polygon style="fill: #000000" points="417.764,139.034 407.841,144.184 410.265,139.147 407.69,134.185 "/>
    <polygon style="fill: none; fill-opacity:0; stroke-width: 2; stroke: #000000" points="417.764,139.034 407.841,144.184 410.265,139.147 407.69,134.185 "/>
  </g>
  <g>
    <line style="fill: none; fill-opacity:0; stroke-width: 2; stroke: #000000" x1="460" y1="139" x2="490.266" y2="139.611"/>
    <polygon style="fill: #000000" points="497.764,139.763 487.665,144.56 490.266,139.611 487.867,134.562 "/>
    <polygon style="fill: none; fill-opacity:0; stroke-width: 2; stroke: #000000" points="497.764,139.763 487.665,144.56 490.266,139.611 487.867,134.562 "/>
  </g>
  <g>
    <line style="fill: none; fill-opacity:0; stroke-width: 2; stroke: #000000" x1="300" y1="140.855" x2="330.269" y2="139.907"/>
    <polygon style="fill: #000000" points="337.765,139.672 327.927,144.983 330.269,139.907 327.613,134.987 "/>
    <polygon style="fill: none; fill-opacity:0; stroke-width: 2; stroke: #000000" points="337.765,139.672 327.927,144.983 330.269,139.907 327.613,134.987 "/>
  </g>
  <g>
    <polyline style="fill: none; fill-opacity:0; stroke-width: 2; stroke: #000000" points="520.202,159.616 520,180 229.736,180 "/>
    <polygon style="fill: #000000" points="222.236,180 232.236,175 229.736,180 232.236,185 "/>
    <polygon style="fill: none; fill-opacity:0; stroke-width: 2; stroke: #000000" points="222.236,180 232.236,175 229.736,180 232.236,185 "/>
  </g>
  <g>
    <rect style="fill: #ffffff" x="240" y="280.856" width="40" height="40"/>
    <rect style="fill: none; fill-opacity:0; stroke-width: 2; stroke: #000000" x="240" y="280.856" width="40" height="40"/>
    <text font-size="12.8" style="fill: #000000;text-anchor:middle;font-family:sans-serif;font-style:normal;font-weight:normal" x="260" y="304.756">
      <tspan x="260" y="304.756">sign</tspan>
    </text>
  </g>
  <g>
    <polyline style="fill: none; fill-opacity:0; stroke-width: 2; stroke: #000000" points="220,260.856 260,260.856 260,271.12 "/>
    <polygon style="fill: #000000" points="260,278.62 255,268.62 260,271.12 265,268.62 "/>
    <polygon style="fill: none; fill-opacity:0; stroke-width: 2; stroke: #000000" points="260,278.62 255,268.62 260,271.12 265,268.62 "/>
  </g>
  <g>
    <polyline style="fill: none; fill-opacity:0; stroke-width: 2; stroke: #000000" points="260,320.856 260,340.856 229.736,340.856 "/>
    <polygon style="fill: #000000" points="222.236,340.856 232.236,335.856 229.736,340.856 232.236,345.856 "/>
    <polygon style="fill: none; fill-opacity:0; stroke-width: 2; stroke: #000000" points="222.236,340.856 232.236,335.856 229.736,340.856 232.236,345.856 "/>
  </g>
  <g>
    <ellipse style="fill: #ffffff" cx="319.232" cy="240.903" rx="19.2322" ry="20.0471"/>
    <ellipse style="fill: none; fill-opacity:0; stroke-width: 2; stroke: #000000" cx="319.232" cy="240.903" rx="19.2322" ry="20.0471"/>
    <text font-size="12.8" style="fill: #000000;text-anchor:middle;font-family:sans-serif;font-style:normal;font-weight:normal" x="319.232" y="244.803">
      <tspan x="319.232" y="244.803">b</tspan>
    </text>
  </g>
  <g>
    <polyline style="fill: none; fill-opacity:0; stroke-width: 2; stroke: #000000" points="319.232,260.95 320,300.856 289.736,300.856 "/>
    <polygon style="fill: #000000" points="282.236,300.856 292.236,295.856 289.736,300.856 292.236,305.856 "/>
    <polygon style="fill: none; fill-opacity:0; stroke-width: 2; stroke: #000000" points="282.236,300.856 292.236,295.856 289.736,300.856 292.236,305.856 "/>
  </g>
  <g>
    <rect style="fill: #ffffff" x="240" y="400.856" width="40" height="40"/>
    <rect style="fill: none; fill-opacity:0; stroke-width: 2; stroke: #000000" x="240" y="400.856" width="40" height="40"/>
    <text font-size="12.8" style="fill: #000000;text-anchor:middle;font-family:sans-serif;font-style:normal;font-weight:normal" x="260" y="424.756">
      <tspan x="260" y="424.756">sign</tspan>
    </text>
  </g>
  <g>
    <polyline style="fill: none; fill-opacity:0; stroke-width: 2; stroke: #000000" points="220,380.856 260,380.856 260,391.12 "/>
    <polygon style="fill: #000000" points="260,398.62 255,388.62 260,391.12 265,388.62 "/>
    <polygon style="fill: none; fill-opacity:0; stroke-width: 2; stroke: #000000" points="260,398.62 255,388.62 260,391.12 265,388.62 "/>
  </g>
  <g>
    <polyline style="fill: none; fill-opacity:0; stroke-width: 2; stroke: #000000" points="260,440.856 260,460.856 229.736,460.856 "/>
    <polygon style="fill: #000000" points="222.236,460.856 232.236,455.856 229.736,460.856 232.236,465.856 "/>
    <polygon style="fill: none; fill-opacity:0; stroke-width: 2; stroke: #000000" points="222.236,460.856 232.236,455.856 229.736,460.856 232.236,465.856 "/>
  </g>
  <g>
    <ellipse style="fill: #ffffff" cx="319.232" cy="360.903" rx="19.2322" ry="20.0471"/>
    <ellipse style="fill: none; fill-opacity:0; stroke-width: 2; stroke: #000000" cx="319.232" cy="360.903" rx="19.2322" ry="20.0471"/>
    <text font-size="12.8" style="fill: #000000;text-anchor:middle;font-family:sans-serif;font-style:normal;font-weight:normal" x="319.232" y="364.803">
      <tspan x="319.232" y="364.803">b</tspan>
    </text>
  </g>
  <g>
    <polyline style="fill: none; fill-opacity:0; stroke-width: 2; stroke: #000000" points="319.232,380.95 320,420.856 289.736,420.856 "/>
    <polygon style="fill: #000000" points="282.236,420.856 292.236,415.856 289.736,420.856 292.236,425.856 "/>
    <polygon style="fill: none; fill-opacity:0; stroke-width: 2; stroke: #000000" points="282.236,420.856 292.236,415.856 289.736,420.856 292.236,425.856 "/>
  </g>
  <g>
    <polyline style="fill: none; fill-opacity:0; stroke-width: 2; stroke: #000000" points="199.798,559.794 99.798,559.794 99.798,610.058 "/>
    <polygon style="fill: #000000" points="99.798,617.558 94.798,607.558 99.798,610.058 104.798,607.558 "/>
    <polygon style="fill: none; fill-opacity:0; stroke-width: 2; stroke: #000000" points="99.798,617.558 94.798,607.558 99.798,610.058 104.798,607.558 "/>
  </g>
  <g>
    <polyline style="fill: none; fill-opacity:0; stroke-width: 2; stroke: #000000" points="199.798,579.794 139.798,579.794 139.798,610.058 "/>
    <polygon style="fill: #000000" points="139.798,617.558 134.798,607.558 139.798,610.058 144.798,607.558 "/>
    <polygon style="fill: none; fill-opacity:0; stroke-width: 2; stroke: #000000" points="139.798,617.558 134.798,607.558 139.798,610.058 144.798,607.558 "/>
  </g>
  <g>
    <rect style="fill: #ffffff" x="79.798" y="619.794" width="80" height="40"/>
    <rect style="fill: none; fill-opacity:0; stroke-width: 2; stroke: #000000" x="79.798" y="619.794" width="80" height="40"/>
    <text font-size="12.8" style="fill: #000000;text-anchor:middle;font-family:sans-serif;font-style:normal;font-weight:normal" x="119.798" y="643.694">
      <tspan x="119.798" y="643.694">verify</tspan>
    </text>
  </g>
  <g>
    <polyline style="fill: none; fill-opacity:0; stroke-width: 2; stroke: #000000" points="119.798,659.794 120,686.856 119.858,710.058 "/>
    <polygon style="fill: #000000" points="119.812,717.558 114.873,707.527 119.858,710.058 124.873,707.589 "/>
    <polygon style="fill: none; fill-opacity:0; stroke-width: 2; stroke: #000000" points="119.812,717.558 114.873,707.527 119.858,710.058 124.873,707.589 "/>
  </g>
  <g>
    <line style="fill: none; fill-opacity:0; stroke-width: 2; stroke: #000000" x1="220" y1="100.855" x2="220" y2="460.856"/>
    <line style="fill: none; fill-opacity:0; stroke-width: 2; stroke: #000000" x1="220" y1="480.856" x2="220" y2="476.856"/>
    <line style="fill: none; fill-opacity:0; stroke-width: 2; stroke: #000000" x1="220" y1="474.189" x2="220" y2="470.189"/>
    <line style="fill: none; fill-opacity:0; stroke-width: 2; stroke: #000000" x1="220" y1="467.523" x2="220" y2="463.523"/>
  </g>
  <g>
    <line style="fill: none; fill-opacity:0; stroke-width: 2; stroke: #000000" x1="200" y1="100.855" x2="200" y2="460.856"/>
    <line style="fill: none; fill-opacity:0; stroke-width: 2; stroke: #000000" x1="200" y1="480.856" x2="200" y2="476.856"/>
    <line style="fill: none; fill-opacity:0; stroke-width: 2; stroke: #000000" x1="200" y1="474.189" x2="200" y2="470.189"/>
    <line style="fill: none; fill-opacity:0; stroke-width: 2; stroke: #000000" x1="200" y1="467.523" x2="200" y2="463.523"/>
  </g>
  <g>
    <line style="fill: none; fill-opacity:0; stroke-width: 4; stroke: #000000" x1="260" y1="500.856" x2="260" y2="500.856"/>
    <line style="fill: none; fill-opacity:0; stroke-width: 4; stroke: #000000" x1="260" y1="480.856" x2="260" y2="484.856"/>
    <line style="fill: none; fill-opacity:0; stroke-width: 4; stroke: #000000" x1="260" y1="487.523" x2="260" y2="491.523"/>
    <line style="fill: none; fill-opacity:0; stroke-width: 4; stroke: #000000" x1="260" y1="494.189" x2="260" y2="498.189"/>
    <line style="fill: none; fill-opacity:0; stroke-width: 4; stroke: #000000" x1="260" y1="500.856" x2="260" y2="500.856"/>
    <line style="fill: none; fill-opacity:0; stroke-width: 4; stroke: #000000" x1="260" y1="500.856" x2="260" y2="500.856"/>
    <line style="fill: none; fill-opacity:0; stroke-width: 4; stroke: #000000" x1="260" y1="500.856" x2="260" y2="500.856"/>
  </g>
  <g>
    <line style="fill: none; fill-opacity:0; stroke-width: 2; stroke: #000000" x1="980" y1="520" x2="980" y2="770.264"/>
    <line style="fill: none; fill-opacity:0; stroke-width: 2; stroke: #000000" x1="980" y1="500" x2="980" y2="504"/>
    <line style="fill: none; fill-opacity:0; stroke-width: 2; stroke: #000000" x1="980" y1="506.667" x2="980" y2="510.667"/>
    <line style="fill: none; fill-opacity:0; stroke-width: 2; stroke: #000000" x1="980" y1="513.333" x2="980" y2="517.333"/>
    <polygon style="fill: #000000" points="980,777.764 975,767.764 980,770.264 985,767.764 "/>
    <polygon style="fill: none; fill-opacity:0; stroke-width: 2; stroke: #000000" points="980,777.764 975,767.764 980,770.264 985,767.764 "/>
  </g>
  <g>
    <line style="fill: none; fill-opacity:0; stroke-width: 2; stroke: #000000" x1="1002.06" y1="521.674" x2="1002.06" y2="771.938"/>
    <line style="fill: none; fill-opacity:0; stroke-width: 2; stroke: #000000" x1="1002.06" y1="501.674" x2="1002.06" y2="505.674"/>
    <line style="fill: none; fill-opacity:0; stroke-width: 2; stroke: #000000" x1="1002.06" y1="508.341" x2="1002.06" y2="512.341"/>
    <line style="fill: none; fill-opacity:0; stroke-width: 2; stroke: #000000" x1="1002.06" y1="515.007" x2="1002.06" y2="519.007"/>
    <polygon style="fill: #000000" points="1002.06,779.438 997.058,769.438 1002.06,771.938 1007.06,769.438 "/>
    <polygon style="fill: none; fill-opacity:0; stroke-width: 2; stroke: #000000" points="1002.06,779.438 997.058,769.438 1002.06,771.938 1007.06,769.438 "/>
  </g>
  <g>
    <rect style="fill: #ffffff" x="1022.06" y="281.674" width="40" height="40"/>
    <rect style="fill: none; fill-opacity:0; stroke-width: 2; stroke: #000000" x="1022.06" y="281.674" width="40" height="40"/>
    <text font-size="12.8" style="fill: #000000;text-anchor:middle;font-family:sans-serif;font-style:normal;font-weight:normal" x="1042.06" y="305.574">
      <tspan x="1042.06" y="305.574">sign</tspan>
    </text>
  </g>
  <g>
    <polyline style="fill: none; fill-opacity:0; stroke-width: 2; stroke: #000000" points="1002.06,261.674 1042.06,261.674 1042.06,271.938 "/>
    <polygon style="fill: #000000" points="1042.06,279.438 1037.06,269.438 1042.06,271.938 1047.06,269.438 "/>
    <polygon style="fill: none; fill-opacity:0; stroke-width: 2; stroke: #000000" points="1042.06,279.438 1037.06,269.438 1042.06,271.938 1047.06,269.438 "/>
  </g>
  <g>
    <polyline style="fill: none; fill-opacity:0; stroke-width: 2; stroke: #000000" points="1042.06,321.674 1042.06,341.674 1011.79,341.674 "/>
    <polygon style="fill: #000000" points="1004.29,341.674 1014.29,336.674 1011.79,341.674 1014.29,346.674 "/>
    <polygon style="fill: none; fill-opacity:0; stroke-width: 2; stroke: #000000" points="1004.29,341.674 1014.29,336.674 1011.79,341.674 1014.29,346.674 "/>
  </g>
  <g>
    <ellipse style="fill: #ffffff" cx="1101.29" cy="241.721" rx="19.2322" ry="20.0471"/>
    <ellipse style="fill: none; fill-opacity:0; stroke-width: 2; stroke: #000000" cx="1101.29" cy="241.721" rx="19.2322" ry="20.0471"/>
    <text font-size="12.8" style="fill: #000000;text-anchor:middle;font-family:sans-serif;font-style:normal;font-weight:normal" x="1101.29" y="245.621">
      <tspan x="1101.29" y="245.621">b</tspan>
    </text>
  </g>
  <g>
    <polyline style="fill: none; fill-opacity:0; stroke-width: 2; stroke: #000000" points="1101.29,261.768 1102.06,301.674 1071.79,301.674 "/>
    <polygon style="fill: #000000" points="1064.29,301.674 1074.29,296.674 1071.79,301.674 1074.29,306.674 "/>
    <polygon style="fill: none; fill-opacity:0; stroke-width: 2; stroke: #000000" points="1064.29,301.674 1074.29,296.674 1071.79,301.674 1074.29,306.674 "/>
  </g>
  <g>
    <rect style="fill: #ffffff" x="1022.06" y="401.674" width="40" height="40"/>
    <rect style="fill: none; fill-opacity:0; stroke-width: 2; stroke: #000000" x="1022.06" y="401.674" width="40" height="40"/>
    <text font-size="12.8" style="fill: #000000;text-anchor:middle;font-family:sans-serif;font-style:normal;font-weight:normal" x="1042.06" y="425.574">
      <tspan x="1042.06" y="425.574">sign</tspan>
    </text>
  </g>
  <g>
    <polyline style="fill: none; fill-opacity:0; stroke-width: 2; stroke: #000000" points="1002.06,381.674 1042.06,381.674 1042.06,391.938 "/>
    <polygon style="fill: #000000" points="1042.06,399.438 1037.06,389.438 1042.06,391.938 1047.06,389.438 "/>
    <polygon style="fill: none; fill-opacity:0; stroke-width: 2; stroke: #000000" points="1042.06,399.438 1037.06,389.438 1042.06,391.938 1047.06,389.438 "/>
  </g>
  <g>
    <polyline style="fill: none; fill-opacity:0; stroke-width: 2; stroke: #000000" points="1042.06,441.674 1042.06,461.674 1011.79,461.674 "/>
    <polygon style="fill: #000000" points="1004.29,461.674 1014.29,456.674 1011.79,461.674 1014.29,466.674 "/>
    <polygon style="fill: none; fill-opacity:0; stroke-width: 2; stroke: #000000" points="1004.29,461.674 1014.29,456.674 1011.79,461.674 1014.29,466.674 "/>
  </g>
  <g>
    <ellipse style="fill: #ffffff" cx="1101.29" cy="361.721" rx="19.2322" ry="20.0471"/>
    <ellipse style="fill: none; fill-opacity:0; stroke-width: 2; stroke: #000000" cx="1101.29" cy="361.721" rx="19.2322" ry="20.0471"/>
    <text font-size="12.8" style="fill: #000000;text-anchor:middle;font-family:sans-serif;font-style:normal;font-weight:normal" x="1101.29" y="365.621">
      <tspan x="1101.29" y="365.621">b</tspan>
    </text>
  </g>
  <g>
    <polyline style="fill: none; fill-opacity:0; stroke-width: 2; stroke: #000000" points="1101.29,381.768 1102.06,421.674 1071.79,421.674 "/>
    <polygon style="fill: #000000" points="1064.29,421.674 1074.29,416.674 1071.79,421.674 1074.29,426.674 "/>
    <polygon style="fill: none; fill-opacity:0; stroke-width: 2; stroke: #000000" points="1064.29,421.674 1074.29,416.674 1071.79,421.674 1074.29,426.674 "/>
  </g>
  <g>
    <line style="fill: none; fill-opacity:0; stroke-width: 2; stroke: #000000" x1="997.942" y1="98.3264" x2="1001.84" y2="461.675"/>
    <line style="fill: none; fill-opacity:0; stroke-width: 2; stroke: #000000" x1="1002.06" y1="481.674" x2="1002.02" y2="477.674"/>
    <line style="fill: none; fill-opacity:0; stroke-width: 2; stroke: #000000" x1="1001.99" y1="475.008" x2="1001.94" y2="471.008"/>
    <line style="fill: none; fill-opacity:0; stroke-width: 2; stroke: #000000" x1="1001.91" y1="468.341" x2="1001.87" y2="464.342"/>
  </g>
  <g>
    <line style="fill: none; fill-opacity:0; stroke-width: 2; stroke: #000000" x1="982.058" y1="101.673" x2="982.058" y2="461.674"/>
    <line style="fill: none; fill-opacity:0; stroke-width: 2; stroke: #000000" x1="982.058" y1="481.674" x2="982.058" y2="477.674"/>
    <line style="fill: none; fill-opacity:0; stroke-width: 2; stroke: #000000" x1="982.058" y1="475.007" x2="982.058" y2="471.007"/>
    <line style="fill: none; fill-opacity:0; stroke-width: 2; stroke: #000000" x1="982.058" y1="468.341" x2="982.058" y2="464.341"/>
  </g>
  <g>
    <line style="fill: none; fill-opacity:0; stroke-width: 4; stroke: #000000" x1="1042.06" y1="501.674" x2="1042.06" y2="501.674"/>
    <line style="fill: none; fill-opacity:0; stroke-width: 4; stroke: #000000" x1="1042.06" y1="481.674" x2="1042.06" y2="485.674"/>
    <line style="fill: none; fill-opacity:0; stroke-width: 4; stroke: #000000" x1="1042.06" y1="488.341" x2="1042.06" y2="492.341"/>
    <line style="fill: none; fill-opacity:0; stroke-width: 4; stroke: #000000" x1="1042.06" y1="495.007" x2="1042.06" y2="499.007"/>
    <line style="fill: none; fill-opacity:0; stroke-width: 4; stroke: #000000" x1="1042.06" y1="501.674" x2="1042.06" y2="501.674"/>
    <line style="fill: none; fill-opacity:0; stroke-width: 4; stroke: #000000" x1="1042.06" y1="501.674" x2="1042.06" y2="501.674"/>
    <line style="fill: none; fill-opacity:0; stroke-width: 4; stroke: #000000" x1="1042.06" y1="501.674" x2="1042.06" y2="501.674"/>
  </g>
  <g>
    <path style="fill: #ffffff" d="M 193.662 93.7611 C 189.014,93.611 180,96.7624 181.268,103.516 C 182.535,110.269 188.592,111.769 191.127,109.818 C 193.662,107.867 187.183,119.273 199.577,122.274 C 211.972,125.275 218.31,120.473 216.479,117.022 C 214.648,113.57 227.324,125.125 233.239,118.522 C 239.155,111.919 227.183,105.616 229.718,106.517 C 232.254,107.417 240,106.217 237.465,94.9616 C 234.93,83.7065 212.113,92.4105 214.648,90.7597 C 217.183,89.109 210.845,80.8552 202.958,82.506 C 195.07,84.1567 194.511,87.1522 193.666,93.7552 L 193.662,93.7611z"/>
    <path style="fill: none; fill-opacity:0; stroke-width: 2; stroke: #000000" d="M 193.662 93.7611 C 189.014,93.611 180,96.7624 181.268,103.516 C 182.535,110.269 188.592,111.769 191.127,109.818 C 193.662,107.867 187.183,119.273 199.577,122.274 C 211.972,125.275 218.31,120.473 216.479,117.022 C 214.648,113.57 227.324,125.125 233.239,118.522 C 239.155,111.919 227.183,105.616 229.718,106.517 C 232.254,107.417 240,106.217 237.465,94.9616 C 234.93,83.7065 212.113,92.4105 214.648,90.7597 C 217.183,89.109 210.845,80.8552 202.958,82.506 C 195.07,84.1567 194.511,87.1522 193.666,93.7552 L 193.662,93.7611"/>
    <text font-size="12.8" style="fill: #000000;text-anchor:middle;font-family:sans-serif;font-style:normal;font-weight:normal" x="211.608" y="107.848">
      <tspan x="211.608" y="107.848"></tspan>
    </text>
  </g>
  <g>
    <path style="fill: #ffffff" d="M 953.662 92.9055 C 949.014,92.7554 940,95.9068 941.268,102.66 C 942.535,109.413 948.592,110.914 951.127,108.963 C 953.662,107.012 947.183,118.417 959.577,121.418 C 971.972,124.42 978.31,119.618 976.479,116.166 C 974.648,112.714 987.324,124.27 993.239,117.667 C 999.155,111.064 987.183,104.761 989.718,105.661 C 992.254,106.562 1000,105.361 997.465,94.106 C 994.93,82.8509 972.113,91.5549 974.648,89.9041 C 977.183,88.2534 970.845,79.9996 962.958,81.6504 C 955.07,83.3011 954.511,86.2966 953.666,92.8996 L 953.662,92.9055z"/>
    <path style="fill: none; fill-opacity:0; stroke-width: 2; stroke: #000000" d="M 953.662 92.9055 C 949.014,92.7554 940,95.9068 941.268,102.66 C 942.535,109.413 948.592,110.914 951.127,108.963 C 953.662,107.012 947.183,118.417 959.577,121.418 C 971.972,124.42 978.31,119.618 976.479,116.166 C 974.648,112.714 987.324,124.27 993.239,117.667 C 999.155,111.064 987.183,104.761 989.718,105.661 C 992.254,106.562 1000,105.361 997.465,94.106 C 994.93,82.8509 972.113,91.5549 974.648,89.9041 C 977.183,88.2534 970.845,79.9996 962.958,81.6504 C 955.07,83.3011 954.511,86.2966 953.666,92.8996 L 953.662,92.9055"/>
    <text font-size="12.8" style="fill: #000000;text-anchor:middle;font-family:sans-serif;font-style:normal;font-weight:normal" x="971.608" y="106.993">
      <tspan x="971.608" y="106.993"></tspan>
    </text>
  </g>
  <g>
    <path style="fill: #ffffff" d="M 780 620 L 900,620 L 876,660 L 804,660 L 780,620z"/>
    <path style="fill: none; fill-opacity:0; stroke-width: 2; stroke-dasharray: 4; stroke: #000000" d="M 780 620 L 900,620 L 876,660 L 804,660 L 780,620"/>
    <text font-size="12.8" style="fill: #000000;text-anchor:middle;font-family:sans-serif;font-style:normal;font-weight:normal" x="840" y="644">
      <tspan x="840" y="644">valid?</tspan>
    </text>
  </g>
  <g>
    <line style="fill: none; fill-opacity:0; stroke-width: 2; stroke: #000000" x1="920" y1="640" x2="898.896" y2="640"/>
    <polygon style="fill: #000000" points="891.396,640 901.396,635 898.896,640 901.396,645 "/>
    <polygon style="fill: none; fill-opacity:0; stroke-width: 2; stroke: #000000" points="891.396,640 901.396,635 898.896,640 901.396,645 "/>
  </g>
  <g>
    <path style="fill: #ffffff" d="M 700 560 L 820,560 L 796,600 L 724,600 L 700,560z"/>
    <path style="fill: none; fill-opacity:0; stroke-width: 2; stroke-dasharray: 4; stroke: #000000" d="M 700 560 L 820,560 L 796,600 L 724,600 L 700,560"/>
    <text font-size="12.8" style="fill: #000000;text-anchor:middle;font-family:sans-serif;font-style:normal;font-weight:normal" x="760" y="584">
      <tspan x="760" y="584">origmsg</tspan>
    </text>
  </g>
  <g>
    <line style="fill: none; fill-opacity:0; stroke-width: 2; stroke: #000000" x1="920" y1="580" x2="817.736" y2="580"/>
    <polygon style="fill: #000000" points="810.236,580 820.236,575 817.736,580 820.236,585 "/>
    <polygon style="fill: none; fill-opacity:0; stroke-width: 2; stroke: #000000" points="810.236,580 820.236,575 817.736,580 820.236,585 "/>
  </g>
  <g>
    <polyline style="fill: none; fill-opacity:0; stroke-width: 2; stroke: #000000" points="1002.06,261.674 1002.06,260 730,260 730,550.264 "/>
    <polygon style="fill: #000000" points="730,557.764 725,547.764 730,550.264 735,547.764 "/>
    <polygon style="fill: none; fill-opacity:0; stroke-width: 2; stroke: #000000" points="730,557.764 725,547.764 730,550.264 735,547.764 "/>
  </g>
  <g>
    <polyline style="fill: none; fill-opacity:0; stroke-width: 2; stroke: #000000" points="1002.06,381.674 1002.06,380 760,380 760,550.264 "/>
    <polygon style="fill: #000000" points="760,557.764 755,547.764 760,550.264 765,547.764 "/>
    <polygon style="fill: none; fill-opacity:0; stroke-width: 2; stroke: #000000" points="760,557.764 755,547.764 760,550.264 765,547.764 "/>
  </g>
  <ellipse style="fill: #000000" cx="1002.06" cy="261.674" rx="2" ry="2"/>
  <ellipse style="fill: #000000" cx="1002.06" cy="381.674" rx="2" ry="2"/>
  <g>
    <line style="fill: none; fill-opacity:0; stroke-width: 4; stroke: #000000" x1="780" y1="540" x2="780" y2="540"/>
    <line style="fill: none; fill-opacity:0; stroke-width: 4; stroke: #000000" x1="800" y1="540" x2="796" y2="540"/>
    <line style="fill: none; fill-opacity:0; stroke-width: 4; stroke: #000000" x1="793.333" y1="540" x2="789.333" y2="540"/>
    <line style="fill: none; fill-opacity:0; stroke-width: 4; stroke: #000000" x1="786.667" y1="540" x2="782.667" y2="540"/>
    <line style="fill: none; fill-opacity:0; stroke-width: 4; stroke: #000000" x1="780" y1="540" x2="780" y2="540"/>
    <line style="fill: none; fill-opacity:0; stroke-width: 4; stroke: #000000" x1="780" y1="540" x2="780" y2="540"/>
    <line style="fill: none; fill-opacity:0; stroke-width: 4; stroke: #000000" x1="780" y1="540" x2="780" y2="540"/>
  </g>
  <g>
    <line style="fill: none; fill-opacity:0; stroke-width: 2; stroke: #000000" x1="840" y1="660" x2="840" y2="730.264"/>
    <polygon style="fill: #000000" points="840,737.764 835,727.764 840,730.264 845,727.764 "/>
    <polygon style="fill: none; fill-opacity:0; stroke-width: 2; stroke: #000000" points="840,737.764 835,727.764 840,730.264 845,727.764 "/>
  </g>
  <text font-size="20.32" style="fill: #000000;text-anchor:start;font-family:sans-serif;font-style:normal;font-weight:normal" x="860" y="620">
    <tspan x="860" y="620">0</tspan>
  </text>
  <text font-size="20.32" style="fill: #000000;text-anchor:start;font-family:sans-serif;font-style:normal;font-weight:normal" x="800" y="620">
    <tspan x="800" y="620">1</tspan>
  </text>
  <g>
    <polyline style="fill: none; fill-opacity:0; stroke-width: 2; stroke: #000000" points="960,540 960,720 900,720 900,730.264 "/>
    <polygon style="fill: #000000" points="900,737.764 895,727.764 900,730.264 905,727.764 "/>
    <polygon style="fill: none; fill-opacity:0; stroke-width: 2; stroke: #000000" points="900,737.764 895,727.764 900,730.264 905,727.764 "/>
  </g>
  <g>
    <polyline style="fill: none; fill-opacity:0; stroke-width: 2; stroke: #000000" points="179.798,579.794 180,606.856 179.815,710.058 "/>
    <polygon style="fill: #000000" points="179.802,717.558 174.82,707.549 179.815,710.058 184.82,707.567 "/>
    <polygon style="fill: none; fill-opacity:0; stroke-width: 2; stroke: #000000" points="179.802,717.558 174.82,707.549 179.815,710.058 184.82,707.567 "/>
  </g>
  <g>
    <polyline style="fill: none; fill-opacity:0; stroke-width: 2; stroke: #000000" points="99.798,559.794 59.798,559.794 59.798,710.058 "/>
    <polygon style="fill: #000000" points="59.798,717.558 54.798,707.558 59.798,710.058 64.798,707.558 "/>
    <polygon style="fill: none; fill-opacity:0; stroke-width: 2; stroke: #000000" points="59.798,717.558 54.798,707.558 59.798,710.058 64.798,707.558 "/>
  </g>
  <g>
    <path style="fill: #ffffff" d="M 700 680 L 820,680 L 796,720 L 724,720 L 700,680z"/>
    <path style="fill: none; fill-opacity:0; stroke-width: 2; stroke-dasharray: 4; stroke: #000000" d="M 700 680 L 820,680 L 796,720 L 724,720 L 700,680"/>
    <text font-size="12.8" style="fill: #000000;text-anchor:middle;font-family:sans-serif;font-style:normal;font-weight:normal" x="760" y="704">
      <tspan x="760" y="704">forgery?</tspan>
    </text>
  </g>
  <g>
    <polyline style="fill: none; fill-opacity:0; stroke-width: 2; stroke: #000000" points="760,600 760,640 740,640 740,670.264 "/>
    <polygon style="fill: #000000" points="740,677.764 735,667.764 740,670.264 745,667.764 "/>
    <polygon style="fill: none; fill-opacity:0; stroke-width: 2; stroke: #000000" points="740,677.764 735,667.764 740,670.264 745,667.764 "/>
  </g>
  <g>
    <polyline style="fill: none; fill-opacity:0; stroke-width: 2; stroke: #000000" points="900,640 900,700 817.736,700 "/>
    <polygon style="fill: #000000" points="810.236,700 820.236,695 817.736,700 820.236,705 "/>
    <polygon style="fill: none; fill-opacity:0; stroke-width: 2; stroke: #000000" points="810.236,700 820.236,695 817.736,700 820.236,705 "/>
  </g>
  <g>
    <polyline style="fill: none; fill-opacity:0; stroke-width: 2; stroke: #000000" points="920,600 780,600 780,602 780,602 780,670.264 "/>
    <polygon style="fill: #000000" points="780,677.764 775,667.764 780,670.264 785,667.764 "/>
    <polygon style="fill: none; fill-opacity:0; stroke-width: 2; stroke: #000000" points="780,677.764 775,667.764 780,670.264 785,667.764 "/>
  </g>
  <g>
    <line style="fill: none; fill-opacity:0; stroke-width: 2; stroke: #000000" x1="760" y1="720" x2="760" y2="730.264"/>
    <polygon style="fill: #000000" points="760,737.764 755,727.764 760,730.264 765,727.764 "/>
    <polygon style="fill: none; fill-opacity:0; stroke-width: 2; stroke: #000000" points="760,737.764 755,727.764 760,730.264 765,727.764 "/>
  </g>
  <text font-size="12.8" style="fill: #000000;text-anchor:start;font-family:sans-serif;font-style:normal;font-weight:normal" x="740.202" y="760.206">
    <tspan x="740.202" y="760.206">message</tspan>
  </text>
  <text font-size="12.8" style="fill: #000000;text-anchor:start;font-family:sans-serif;font-style:normal;font-weight:normal" x="820.202" y="760.206">
    <tspan x="820.202" y="760.206">valid</tspan>
  </text>
  <text font-size="12.8" style="fill: #000000;text-anchor:start;font-family:sans-serif;font-style:normal;font-weight:normal" x="880.202" y="760.206">
    <tspan x="880.202" y="760.206">  sig</tspan>
  </text>
  <text font-size="12.8" style="fill: #000000;text-anchor:start;font-family:sans-serif;font-style:normal;font-weight:normal" x="20" y="740">
    <tspan x="20" y="740">message</tspan>
  </text>
  <text font-size="12.8" style="fill: #000000;text-anchor:start;font-family:sans-serif;font-style:normal;font-weight:normal" x="100" y="740">
    <tspan x="100" y="740">valid</tspan>
  </text>
  <text font-size="12.8" style="fill: #000000;text-anchor:start;font-family:sans-serif;font-style:normal;font-weight:normal" x="160" y="740">
    <tspan x="160" y="740">  sig</tspan>
  </text>
  <g>
    <polygon style="fill: #ffffff" points="1042.06,142.529 1055.39,139.862 1048.72,129.195 1059.39,135.862 1062.06,122.529 1064.72,135.862 1075.39,129.195 1068.72,139.862 1082.06,142.529 1068.72,145.195 1075.39,155.862 1064.72,149.195 1062.06,162.529 1059.39,149.195 1048.72,155.862 1055.39,145.195 "/>
    <polygon style="fill: none; fill-opacity:0; stroke-width: 2; stroke: #000000" points="1042.06,142.529 1055.39,139.862 1048.72,129.195 1059.39,135.862 1062.06,122.529 1064.72,135.862 1075.39,129.195 1068.72,139.862 1082.06,142.529 1068.72,145.195 1075.39,155.862 1064.72,149.195 1062.06,162.529 1059.39,149.195 1048.72,155.862 1055.39,145.195 "/>
    <polygon style="fill: none; fill-opacity:0; stroke-width: 2; stroke: #000000" points="1042.06,142.529 1055.39,139.862 1048.72,129.195 1059.39,135.862 1062.06,122.529 1064.72,135.862 1075.39,129.195 1068.72,139.862 1082.06,142.529 1068.72,145.195 1075.39,155.862 1064.72,149.195 1062.06,162.529 1059.39,149.195 1048.72,155.862 1055.39,145.195 "/>
  </g>
  <g>
    <ellipse style="fill: #ffffff" cx="1142.08" cy="141.275" rx="20.0175" ry="19.6018"/>
    <ellipse style="fill: none; fill-opacity:0; stroke-width: 2; stroke: #000000" cx="1142.08" cy="141.275" rx="20.0175" ry="19.6018"/>
    <text font-size="12.8" style="fill: #000000;text-anchor:middle;font-family:sans-serif;font-style:normal;font-weight:normal" x="1142.08" y="145.175">
      <tspan x="1142.08" y="145.175">b</tspan>
    </text>
  </g>
  <g>
    <ellipse style="fill: #ffffff" cx="1302.26" cy="141.482" rx="20.2026" ry="19.8081"/>
    <ellipse style="fill: none; fill-opacity:0; stroke-width: 2; stroke: #000000" cx="1302.26" cy="141.482" rx="20.2026" ry="19.8081"/>
    <text font-size="12.8" style="fill: #000000;text-anchor:middle;font-family:sans-serif;font-style:normal;font-weight:normal" x="1302.26" y="145.382">
      <tspan x="1302.26" y="145.382">B</tspan>
    </text>
  </g>
  <g>
    <rect style="fill: #ffffff" x="1202.06" y="121.674" width="40" height="38"/>
    <rect style="fill: none; fill-opacity:0; stroke-width: 2; stroke: #000000" x="1202.06" y="121.674" width="40" height="38"/>
    <text font-size="12.8" style="fill: #000000;text-anchor:middle;font-family:sans-serif;font-style:normal;font-weight:normal" x="1222.06" y="144.574">
      <tspan x="1222.06" y="144.574">pk</tspan>
    </text>
  </g>
  <g>
    <line style="fill: none; fill-opacity:0; stroke-width: 2; stroke: #000000" x1="1162.09" y1="141.275" x2="1192.32" y2="140.82"/>
    <polygon style="fill: #000000" points="1199.82,140.707 1189.9,145.857 1192.32,140.82 1189.75,135.858 "/>
    <polygon style="fill: none; fill-opacity:0; stroke-width: 2; stroke: #000000" points="1199.82,140.707 1189.9,145.857 1192.32,140.82 1189.75,135.858 "/>
  </g>
  <g>
    <line style="fill: none; fill-opacity:0; stroke-width: 2; stroke: #000000" x1="1242.06" y1="140.674" x2="1272.32" y2="141.285"/>
    <polygon style="fill: #000000" points="1279.82,141.436 1269.72,146.233 1272.32,141.285 1269.93,136.236 "/>
    <polygon style="fill: none; fill-opacity:0; stroke-width: 2; stroke: #000000" points="1279.82,141.436 1269.72,146.233 1272.32,141.285 1269.93,136.236 "/>
  </g>
  <g>
    <line style="fill: none; fill-opacity:0; stroke-width: 2; stroke: #000000" x1="1082.06" y1="142.529" x2="1112.33" y2="141.58"/>
    <polygon style="fill: #000000" points="1119.82,141.345 1109.98,146.656 1112.33,141.58 1109.67,136.661 "/>
    <polygon style="fill: none; fill-opacity:0; stroke-width: 2; stroke: #000000" points="1119.82,141.345 1109.98,146.656 1112.33,141.58 1109.67,136.661 "/>
  </g>
  <g>
    <polyline style="fill: none; fill-opacity:0; stroke-width: 2; stroke: #000000" points="1302.26,161.29 1302.06,181.674 1011.79,181.674 "/>
    <polygon style="fill: #000000" points="1004.29,181.674 1014.29,176.674 1011.79,181.674 1014.29,186.674 "/>
    <polygon style="fill: none; fill-opacity:0; stroke-width: 2; stroke: #000000" points="1004.29,181.674 1014.29,176.674 1011.79,181.674 1014.29,186.674 "/>
  </g>
  <g>
    <rect style="fill: #ffffff" x="920" y="560" width="20" height="100"/>
    <rect style="fill: none; fill-opacity:0; stroke-width: 2; stroke: #000000" x="920" y="560" width="20" height="100"/>
    <text font-size="12.8016" style="fill: #000000;text-anchor:middle;font-family:sans-serif;font-style:normal;font-weight:normal" x="930" y="613.899">
      <tspan x="930" y="613.899">∃</tspan>
    </text>
  </g>
  <g>
    <polyline style="fill: none; fill-opacity:0; stroke-width: 2; stroke: #000000" points="980,540 980,540 930,540 930,550.264 "/>
    <polygon style="fill: #000000" points="930,557.764 925,547.764 930,550.264 935,547.764 "/>
    <polygon style="fill: none; fill-opacity:0; stroke-width: 2; stroke: #000000" points="930,557.764 925,547.764 930,550.264 935,547.764 "/>
  </g>
  <text font-size="159.998" style="fill: #000000;text-anchor:start;font-family:sans-serif;font-style:normal;font-weight:normal" x="557" y="445">
    <tspan x="557" y="445">≈</tspan>
  </text>
</svg>
